<?xml version="1.0" encoding="UTF-8"?>
<!DOCTYPE svg PUBLIC "-//W3C//DTD SVG 1.1//EN" "http://www.w3.org/Graphics/SVG/1.1/DTD/svg11.dtd">
<!-- Creator: CorelDRAW -->
<svg xmlns="http://www.w3.org/2000/svg" xml:space="preserve" width="2048px" height="2048px" style="shape-rendering:geometricPrecision; text-rendering:geometricPrecision; image-rendering:optimizeQuality; fill-rule:evenodd; clip-rule:evenodd"
viewBox="0 0 2048 2048"
 xmlns:xlink="http://www.w3.org/1999/xlink">
 <defs>
  <style type="text/css">
   <![CDATA[
    .fil2 {fill:none}
    .fil4 {fill:#33691E}
    .fil3 {fill:#558B2F}
    .fil5 {fill:#689F38}
    .fil1 {fill:#E6C047}
    .fil0 {fill:#FFD54F}
    .fil6 {fill:#E6EE9C;fill-rule:nonzero}
   ]]>
  </style>
   <clipPath id="id0">
    <path d="M1024 0c565.539,0 1024,458.461 1024,1024 0,565.539 -458.461,1024 -1024,1024 -565.539,0 -1024,-458.461 -1024,-1024 0,-565.539 458.461,-1024 1024,-1024z"/>
   </clipPath>
 </defs>
 <g id="Layer_x0020_1">
  <metadata id="CorelCorpID_0Corel-Layer"/>
  <path class="fil0" d="M1024 0c565.539,0 1024,458.461 1024,1024 0,565.539 -458.461,1024 -1024,1024 -565.539,0 -1024,-458.461 -1024,-1024 0,-565.539 458.461,-1024 1024,-1024z"/>
  <g style="clip-path:url(#id0)">
   <g id="_341211520">
    <g>
     <polygon id="_3329028481" class="fil1" points="1572.63,670.189 2708.51,1806.07 2709.99,1807.95 2711.37,1809.9 2712.67,1811.91 2713.87,1814 2714.97,1816.14 2715.97,1818.34 2716.86,1820.59 2717.64,1822.9 2718.31,1825.26 2718.87,1827.66 2719.31,1830.1 2719.62,1832.58 2719.82,1835.1 2719.88,1837.65 1584,701.773 1583.94,699.221 1583.74,696.702 1583.43,694.219 1582.99,691.776 1582.43,689.375 1581.76,687.018 1580.98,684.71 1580.08,682.456 1579.09,680.255 1577.99,678.113 1576.79,676.032 1575.49,674.014 1574.11,672.067 "/>
     <polygon id="_332902632" class="fil1" points="1584,701.773 2719.88,1837.65 2719.88,2319.46 1584,1183.58 "/>
     <polygon id="_332903496" class="fil1" points="1584,1183.58 2719.88,2319.46 2719.82,2322.01 2719.62,2324.53 2719.31,2327.01 2718.87,2329.46 2718.31,2331.86 2717.64,2334.21 2716.86,2336.52 2715.97,2338.78 2714.97,2340.98 2713.87,2343.12 2712.67,2345.2 2711.37,2347.22 2709.99,2349.17 2708.51,2351.04 2706.95,2352.85 2705.3,2354.57 1569.42,1218.69 1571.07,1216.97 1572.63,1215.16 1574.11,1213.28 1575.49,1211.33 1576.79,1209.32 1577.99,1207.24 1579.09,1205.1 1580.08,1202.89 1580.98,1200.64 1581.76,1198.33 1582.43,1195.97 1582.99,1193.57 1583.43,1191.13 1583.74,1188.65 1583.94,1186.13 "/>
     <polygon id="_332903664" class="fil1" points="1569.42,1218.69 2705.3,2354.57 2704.38,2355.48 2703.43,2356.35 2702.46,2357.21 2701.46,2358.04 2700.45,2358.84 2699.41,2359.62 2698.35,2360.37 2697.28,2361.09 2696.18,2361.79 2695.07,2362.45 2693.93,2363.09 2692.78,2363.71 2691.61,2364.29 2690.42,2364.84 2689.22,2365.36 2688,2365.85 1552.12,1229.96 1553.34,1229.48 1554.54,1228.95 1555.73,1228.4 1556.9,1227.82 1558.05,1227.21 1559.19,1226.57 1560.3,1225.9 1561.4,1225.21 1562.47,1224.48 1563.53,1223.73 1564.57,1222.96 1565.58,1222.15 1566.58,1221.33 1567.55,1220.47 1568.49,1219.59 "/>
     <polygon id="_332903784" class="fil1" points="1552.12,1229.96 2688,2365.85 2688,2481.55 1552.12,1345.66 "/>
     <polygon id="_332903424" class="fil1" points="1552.12,1345.66 2688,2481.55 2687.93,2484.13 2687.74,2486.67 2687.42,2489.18 2686.98,2491.66 2686.41,2494.08 2685.73,2496.47 2684.94,2498.8 2684.04,2501.08 2683.03,2503.31 2681.92,2505.47 2680.71,2507.58 2679.4,2509.62 2677.99,2511.59 2676.5,2513.49 2674.92,2515.31 2673.26,2517.06 1537.37,1381.18 1539.04,1379.43 1540.62,1377.61 1542.11,1375.71 1543.52,1373.74 1544.83,1371.7 1546.04,1369.59 1547.15,1367.43 1548.16,1365.2 1549.06,1362.92 1549.85,1360.58 1550.53,1358.2 1551.09,1355.77 1551.54,1353.3 1551.86,1350.79 1552.05,1348.24 "/>
     <polygon id="_332903856" class="fil1" points="1537.37,1381.18 2673.26,2517.06 2671.51,2518.72 2669.69,2520.3 2667.79,2521.8 2665.82,2523.2 2663.78,2524.51 2661.67,2525.72 2659.51,2526.83 2657.28,2527.84 2655,2528.74 2652.66,2529.54 2650.28,2530.22 2647.85,2530.78 2645.38,2531.22 2642.87,2531.54 2640.32,2531.74 2637.74,2531.8 1501.86,1395.92 1504.44,1395.86 1506.99,1395.66 1509.5,1395.34 1511.97,1394.9 1514.4,1394.33 1516.78,1393.65 1519.12,1392.86 1521.4,1391.96 1523.62,1390.95 1525.79,1389.84 1527.9,1388.63 1529.94,1387.32 1531.91,1385.92 1533.8,1384.42 1535.63,1382.84 "/>
     <polygon id="_332903184" class="fil1" points="1501.86,1395.92 2637.74,2531.8 1650.14,2531.8 514.257,1395.92 "/>
     <polygon id="_332903256" class="fil1" points="514.257,1395.92 1650.14,2531.8 1647.56,2531.74 1645.01,2531.54 1642.5,2531.22 1640.03,2530.78 1637.6,2530.22 1635.22,2529.54 1632.88,2528.74 1630.6,2527.84 1628.38,2526.83 1626.21,2525.72 1624.11,2524.51 1622.07,2523.2 1620.09,2521.8 1618.2,2520.3 482.315,1384.42 484.213,1385.92 486.185,1387.32 488.224,1388.63 490.329,1389.84 492.495,1390.95 494.72,1391.96 497.002,1392.86 499.336,1393.65 501.718,1394.33 504.147,1394.9 506.619,1395.34 509.13,1395.66 511.676,1395.86 "/>
    </g>
    <path id="_341210968" class="fil1" d="M557.739 652.079l976.567 0c13.6878,0 26.1189,5.58426 35.1142,14.5795 8.99646,8.99528 14.5807,21.4252 14.5807,35.1142l0 481.805c0,13.6878 -5.58426,26.1177 -14.5807,35.1142 -4.87323,4.87323 -10.7563,8.74607 -17.3008,11.2724l0 115.7c0,13.8437 -5.64804,26.4154 -14.7449,35.5122 -9.09804,9.09804 -21.6685,14.7449 -35.5111,14.7449l-987.607 0c-13.8437,0 -26.4154,-5.64685 -35.5122,-14.7449 -9.09804,-9.09686 -14.7461,-21.6685 -14.7461,-35.5122l0 -487.25c0,-13.8437 5.64804,-26.4154 14.7461,-35.5111 7.71497,-7.71615 17.9291,-12.9508 29.2996,-14.3634l0 -106.767c0,-13.689 5.58426,-26.1189 14.5795,-35.1142 8.99528,-8.99528 21.4252,-14.5795 35.1154,-14.5795z"/>
   </g>
  </g>
  <path class="fil2" d="M1024 0c565.539,0 1024,458.461 1024,1024 0,565.539 -458.461,1024 -1024,1024 -565.539,0 -1024,-458.461 -1024,-1024 0,-565.539 458.461,-1024 1024,-1024z"/>
  <path class="fil3" d="M557.739 652.079l976.567 0c13.6878,0 26.1189,5.58426 35.1142,14.5807 8.99646,8.9941 14.5807,21.424 14.5807,35.113l0 481.805c0,13.6878 -5.58426,26.1177 -14.5807,35.1142 -8.99528,8.99528 -21.4264,14.5807 -35.1142,14.5807l-976.567 0c-13.689,0 -26.1189,-5.58544 -35.1154,-14.5807 -8.99528,-8.99646 -14.5795,-21.4264 -14.5795,-35.1142l0 -481.805c0,-13.689 5.58426,-26.1189 14.5795,-35.113 8.99646,-8.99646 21.4252,-14.5807 35.1154,-14.5807z"/>
  <path class="fil4" d="M514.257 808.158l987.607 0c13.8425,0 26.413,5.64685 35.5111,14.7449 9.09804,9.09568 14.7449,21.6662 14.7449,35.5111l0 487.251c0,13.8425 -5.64685,26.413 -14.7449,35.5111 -9.09804,9.09686 -21.6685,14.7449 -35.5111,14.7449l-987.607 0c-13.8437,0 -26.4142,-5.64804 -35.5122,-14.7449 -9.09686,-9.09804 -14.7449,-21.6685 -14.7449,-35.5111l0 -487.251c0,-13.8449 5.64804,-26.4154 14.7449,-35.5111 9.09804,-9.09804 21.6662,-14.7449 35.5122,-14.7449z"/>
  <path class="fil5" d="M514.257 824.892c-8.92678,0 -17.3728,3.53859 -23.6799,9.8445 -6.30591,6.30591 -9.84331,14.7532 -9.84331,23.6776l0 487.251c0,8.92442 3.5374,17.3717 9.8445,23.6788 6.30591,6.30591 14.7532,9.84331 23.6788,9.84331l987.607 0c8.92442,0 17.3717,-3.5374 23.6788,-9.84331 6.30591,-6.30709 9.84331,-14.7543 9.84331,-23.6788l0 -487.251c0,-8.92442 -3.5374,-17.3717 -9.84331,-23.6776 -6.30709,-6.30591 -14.7543,-9.8445 -23.6788,-9.8445l-987.607 0z"/>
  <path class="fil4" d="M503.615 837.239l111.614 0c0.667323,2.1189 1.26969,4.27087 1.80354,6.45237 1.83898,7.52835 2.81693,15.6579 2.81693,24.2941 0,28.0607 -11.3717,53.4626 -29.7579,71.8489 -18.3827,18.3815 -43.787,29.7555 -71.8477,29.7555 -7.35945,0 -14.1402,-0.65315 -20.3032,-1.89567l-0.844489 -0.174803 0 -123.763c0,-1.75984 0.744095,-3.38504 1.93701,-4.57914 1.19528,-1.19528 2.82047,-1.93819 4.5815,-1.93819z"/>
  <path class="fil4" d="M503.615 1372.24l111.614 0c0.667323,-2.1189 1.26969,-4.27087 1.80354,-6.45237 1.83898,-7.52835 2.81693,-15.6579 2.81693,-24.2941 0,-28.0607 -11.3717,-53.4626 -29.7579,-71.8489 -18.3827,-18.3815 -43.787,-29.7555 -71.8477,-29.7555 -7.35945,0 -14.1402,0.65315 -20.3032,1.89567l-0.844489 0.174803 0 123.763c0,1.75984 0.744095,3.38504 1.93701,4.58032 1.19528,1.1941 2.82047,1.93701 4.5815,1.93701z"/>
  <path class="fil4" d="M1512.51 1372.24l-111.614 0c-0.667323,-2.1189 -1.26969,-4.27087 -1.80354,-6.45237 -1.83898,-7.52835 -2.81693,-15.6579 -2.81693,-24.2941 0,-28.0607 11.3717,-53.4626 29.7579,-71.8489 18.3827,-18.3815 43.787,-29.7555 71.8477,-29.7555 7.35945,0 14.1402,0.65315 20.3032,1.89567l0.844489 0.174803 0 123.763c0,1.75984 -0.744095,3.38504 -1.93819,4.58032 -1.1941,1.1941 -2.81929,1.93701 -4.58032,1.93701z"/>
  <path class="fil4" d="M1512.51 837.239l-111.614 0c-0.667323,2.1189 -1.26969,4.27087 -1.80236,6.45119 -1.84016,7.52953 -2.81811,15.6591 -2.81811,24.2953 0,28.0607 11.3717,53.4626 29.7579,71.8489 18.3827,18.3815 43.787,29.7555 71.8477,29.7555 7.35945,0 14.1402,-0.654331 20.3032,-1.89567l0.844489 -0.174803 0 -123.763c0,-1.75984 -0.742914,-3.38504 -1.93819,-4.57914 -1.1941,-1.19528 -2.81929,-1.93819 -4.58032,-1.93819z"/>
  <path class="fil4" d="M1008.06 858.676c67.2001,0 128.041,27.241 172.082,71.2819 44.041,44.0398 71.2819,104.881 71.2819,172.081 0,67.2001 -27.241,128.041 -71.2819,172.082 -44.041,44.041 -104.882,71.2819 -172.082,71.2819 -67.2001,0 -128.041,-27.241 -172.082,-71.2819 -44.041,-44.041 -71.2808,-104.882 -71.2808,-172.082 0,-67.2001 27.2398,-128.041 71.2808,-172.081 44.041,-44.041 104.882,-71.2819 172.082,-71.2819z"/>
  <path class="fil6" d="M1006.16 1250.15l0 -29.4095c-14.7331,-1.84252 -26.6752,-5.13426 -35.8831,-9.87757 -9.20788,-4.74331 -17.1874,-12.4441 -23.8843,-22.9914 -6.69686,-10.6028 -10.6039,-23.4933 -11.6634,-38.7284l29.576 -5.58071c2.28898,15.7925 6.30709,27.4004 12.111,34.8213 8.25827,10.4917 18.1914,16.2957 29.7437,17.4673l0 -93.6402c-12.1099,-2.28898 -24.4429,-6.9756 -37.1103,-14.0634 -9.3756,-5.24528 -16.5744,-12.4996 -21.6532,-21.763 -5.07756,-9.26457 -7.58977,-19.7551 -7.58977,-31.5307 0,-20.9256 7.42323,-37.891 22.2106,-50.8382 9.93426,-8.76142 24.6662,-14.0622 44.1426,-16.0158l0 -14.0622 17.3551 0 0 14.0622c17.0752,1.61811 30.6933,6.64134 40.6819,15.0118 12.8906,10.6583 20.5914,25.3358 23.2146,43.9748l-30.4134 4.57441c-1.73032,-11.5512 -5.35748,-20.4236 -10.8827,-26.563 -5.46851,-6.13819 -13.0028,-10.2118 -22.6004,-12.1642l0 84.8221c14.7886,3.74055 24.6095,6.64134 29.4095,8.70709 9.15119,4.01693 16.6288,8.92796 22.3772,14.6764 5.80394,5.80276 10.2685,12.6673 13.337,20.5914 3.12638,7.98071 4.6878,16.5744 4.6878,25.8378 0,20.4248 -6.52914,37.389 -19.4752,51.0059 -12.9473,13.6725 -29.7449,20.9268 -50.3363,21.9307l0 29.7449 -17.3551 0zm0 -257.652c-11.4413,1.73032 -20.4815,6.30591 -27.0662,13.728 -6.58465,7.42205 -9.87757,16.1835 -9.87757,26.341 0,9.98859 2.78977,18.4146 8.42717,25.1669 5.63622,6.75237 15.1228,12.1654 28.5166,16.1835l0 -81.4194zm17.3551 203.353c11.4402,-1.39488 20.8713,-6.36142 28.3488,-14.8441 7.47756,-8.4815 11.2169,-19.0288 11.2169,-31.5851 0,-10.6595 -2.67874,-19.2532 -7.9252,-25.7268 -5.30079,-6.47245 -15.848,-12.2764 -31.6406,-17.4106l0 89.5666z"/>
 </g>
</svg>
